<svg height="156" viewBox="0 0 414 156" width="414" xmlns="http://www.w3.org/2000/svg"><g fill="none"><path d="m213.55 90.53h-212.82l18.69-90.53h212.81z" fill="#82b9c6"/><g fill="#fff"><path d="m54.91 79.9c-3.7368766.0703914-7.4342729-.7741392-10.77-2.46-3.099101-1.5898102-5.8257636-3.8188569-8-6.54-2.2287943-2.7743702-3.9240902-5.9377924-5-9.33-1.1208077-3.4969917-1.6876604-7.1477933-1.68-10.82.0097442-3.2231774.477762-6.4285943 1.39-9.52 1.9448593-6.6025583 5.4462953-12.6417638 10.21-17.61 2.4423967-2.5681092 5.1894157-4.8281872 8.18-6.73 3.0565055-1.9450013 6.3545412-3.4813951 9.81-4.57 3.6110588-1.1323604 7.375608-1.6990668 11.16-1.68 6.1533333 0 11.1866667 1.3766667 15.1 4.13 3.7773219 2.5718724 6.5337626 6.386305 7.79 10.78l-13.95 8.45c-.2436483-1.5904622-.8157905-3.1127689-1.68-4.47-.7675265-1.1545805-1.7649789-2.1384158-2.93-2.89-1.1500122-.7292829-2.4193585-1.2505611-3.75-1.54-1.3149196-.2809994-2.6553996-.425101-4-.43-3.1602158-.0582168-6.274987.7585454-9 2.36-2.60894 1.5537369-4.8802739 3.6142584-6.68 6.06-1.8020688 2.4726761-3.1901739 5.2218672-4.11 8.14-.936518 2.7578032-1.4260309 5.6476178-1.45 8.56-.0153643 2.0782441.2606543 4.1483839.82 6.15.4962286 1.8270382 1.3084902 3.5530941 2.4 5.1 1.0419436 1.4654042 2.4116299 2.667304 4 3.51 1.6875147.8893132 3.5728432 1.3365627 5.48 1.3 1.4098083-.0043884 2.8137096-.1823951 4.18-.53 3.1566685-.7752465 6.0687109-2.3292526 8.47-4.52 1.3712012-1.2574295 2.5236063-2.7342653 3.41-4.37l11.39 7.57c-1.5817765 2.5445839-3.5639383 4.8171477-5.87 6.73-2.3674542 1.9796186-4.9705225 3.6590175-7.75 5-2.762972 1.3376389-5.6634047 2.3703941-8.65 3.08-2.7886819.689508-5.6475514 1.0552553-8.52 1.09z"/><path d="m121.29 11h14.33l8.85 68.3h-16.16l-1.44-15.3h-19.43l-7.8 15.29h-16.25zm5.29 42.13-1.93-24.13-12.5 24.14z"/><path d="m165.44 11h15.78l-11.64 54.45h30.87l-2.88 13.85h-46.66z"/></g><path d="m394.59 156h-212.82l18.69-90.53h212.81z" fill="#fdb714"/><path d="m241.12 76.58h15.77l-14.52 68.3h-15.78z" fill="#136c97"/><path d="m281.81 90.44h-19.53l2.88-13.86h54.74l-2.9 13.86h-19.42l-11.64 54.44h-15.77z" fill="#136c97"/><path d="m328.27 76.58h27.8c2.470824-.0351667 4.913531.5274794 7.12 1.64 2.064774 1.0516228 3.884411 2.5270959 5.34 4.33 1.460817 1.8364967 2.581763 3.9192206 3.31 6.15.768629 2.2951171 1.16037 4.6995965 1.16 7.12-.02245 3.3683393-.744367 6.695289-2.12 9.77-1.384087 3.196767-3.320322 6.124815-5.72 8.65-2.409036 2.539416-5.241201 4.6407-8.37 6.21-3.145263 1.593246-6.624258 2.415866-10.15 2.4h-12.5l-4.62 22h-15.78zm20.3 32.52c1.030899-.017048 2.04001-.299461 2.93-.82 1.0558-.601463 1.972511-1.419346 2.69-2.4.845048-1.139092 1.497076-2.409365 1.93-3.76.509525-1.616601.7527-3.3053184.72-5 0-2.3066667-.483333-4.0066667-1.45-5.1-.817933-1.0209138-2.051883-1.6195262-3.36-1.63h-11l-3.94 18.66z" fill="#136c97"/></g></svg>
